g Body
v -0.00499487 0.00228831 0.485
vn -1 -5.55112e-17 5.5485e-18
vt 0 0
v -0.00499487 0.502288 0.485
vn -1 -5.55112e-17 5.5485e-18
vt 1 0
v -0.00499487 0.502288 -0.005
vn -1 -5.55112e-17 5.5485e-18
vt 0.999985 1
v -0.00499487 0.00228831 -0.005
vn -1 -5.55112e-17 5.5485e-18
vt 0 1
v 0.975005 0.502288 0.005
vn -6.93889e-17 1 5.90509e-17
vt 0.0199893 0.0204013
v 0.975005 0.502288 0.485
vn -6.93889e-17 1 5.90509e-17
vt 0.0199893 1
v 0.995005 0.502288 0.485
vn -6.93889e-17 1 5.90509e-17
vt 0 1
v 0.995005 0.502288 -0.005
vn -6.93889e-17 1 5.90509e-17
vt 0 0
v 0.0150051 0.502288 0.005
vn -6.93889e-17 1 5.90509e-17
vt 0.979995 0.0204013
v -0.00499487 0.502288 -0.005
vn -6.93889e-17 1 5.90509e-17
vt 1 0
v 0.0150051 0.502288 0.485
vn -6.93889e-17 1 5.90509e-17
vt 0.979995 1
v -0.00499487 0.502288 0.485
vn -6.93889e-17 1 5.90509e-17
vt 1 1
v -0.00499487 0.00228831 -0.005
vn -2.77556e-17 6.245e-17 -1
vt 1 1
v -0.00499487 0.502288 -0.005
vn -2.77556e-17 6.245e-17 -1
vt 0 1
v 0.995005 0.502288 -0.005
vn -2.77556e-17 6.245e-17 -1
vt 0 0
v 0.995005 0.00228831 -0.005
vn -2.77556e-17 6.245e-17 -1
vt 1 0
v 0.995005 0.00228831 -0.005
vn 1 5.55112e-17 -5.5485e-18
vt 0 1
v 0.995005 0.502288 -0.005
vn 1 5.55112e-17 -5.5485e-18
vt 0.999985 1
v 0.995005 0.502288 0.485
vn 1 5.55112e-17 -5.5485e-18
vt 1 0
v 0.995005 0.00228831 0.485
vn 1 5.55112e-17 -5.5485e-18
vt 0 0
v 0.0150051 0.00228831 0.005
vn 6.93889e-17 -1 -5.90509e-17
vt 0.979995 0.0204013
v 0.0150051 0.00228831 0.485
vn 6.93889e-17 -1 -5.90509e-17
vt 0.979995 1
v -0.00499487 0.00228831 0.485
vn 6.93889e-17 -1 -5.90509e-17
vt 1 0.999985
v -0.00499487 0.00228831 -0.005
vn 6.93889e-17 -1 -5.90509e-17
vt 1 0
v 0.975005 0.00228831 0.005
vn 6.93889e-17 -1 -5.90509e-17
vt 0.0199893 0.0204013
v 0.995005 0.00228831 -0.005
vn 6.93889e-17 -1 -5.90509e-17
vt 0 0
v 0.975005 0.00228831 0.485
vn 6.93889e-17 -1 -5.90509e-17
vt 0.0199893 1
v 0.995005 0.00228831 0.485
vn 6.93889e-17 -1 -5.90509e-17
vt 0 0.999985
v 0.975005 0.502288 0.485
vn 2.77556e-17 -6.245e-17 1
vt 0 1
v 0.975005 0.00228831 0.485
vn 2.77556e-17 -6.245e-17 1
vt 1 1
v 0.995005 0.00228831 0.485
vn 2.77556e-17 -6.245e-17 1
vt 1 0
v 0.995005 0.502288 0.485
vn 2.77556e-17 -6.245e-17 1
vt 0 0
v 0.975005 0.502288 0.485
vn -1 -5.55112e-17 5.5485e-18
vt 1 0
v 0.975005 0.502288 0.005
vn -1 -5.55112e-17 5.5485e-18
vt 0.999985 1
v 0.975005 0.00228831 0.005
vn -1 -5.55112e-17 5.5485e-18
vt 0 1
v 0.975005 0.00228831 0.485
vn -1 -5.55112e-17 5.5485e-18
vt 0 0
v 0.0150051 0.502288 0.005
vn 2.77556e-17 -6.245e-17 1
vt 0.999985 1
v 0.0150051 0.00228831 0.005
vn 2.77556e-17 -6.245e-17 1
vt 0 0.999985
v 0.975005 0.00228831 0.005
vn 2.77556e-17 -6.245e-17 1
vt 0 0
v 0.975005 0.502288 0.005
vn 2.77556e-17 -6.245e-17 1
vt 1 0
v 0.0150051 0.502288 0.005
vn 1 5.55112e-17 -5.5485e-18
vt 1 1
v 0.0150051 0.502288 0.485
vn 1 5.55112e-17 -5.5485e-18
vt 1 0
v 0.0150051 0.00228831 0.485
vn 1 5.55112e-17 -5.5485e-18
vt 0 0
v 0.0150051 0.00228831 0.005
vn 1 5.55112e-17 -5.5485e-18
vt 0 1
v 0.0150051 0.502288 0.485
vn 2.77556e-17 -6.245e-17 1
vt 0 0
v -0.00499487 0.502288 0.485
vn 2.77556e-17 -6.245e-17 1
vt 0 1
v -0.00499487 0.00228831 0.485
vn 2.77556e-17 -6.245e-17 1
vt 1 0.999985
v 0.0150051 0.00228831 0.485
vn 2.77556e-17 -6.245e-17 1
vt 0.999985 0
f 1/1/1 2/2/2 3/3/3
f 3/3/3 4/4/4 1/1/1
f 5/5/5 6/6/6 7/7/7
f 7/7/7 8/8/8 5/5/5
f 9/9/9 5/5/5 8/8/8
f 8/8/8 10/10/10 9/9/9
f 11/11/11 9/9/9 10/10/10
f 10/10/10 12/12/12 11/11/11
f 13/13/13 14/14/14 15/15/15
f 15/15/15 16/16/16 13/13/13
f 17/17/17 18/18/18 19/19/19
f 19/19/19 20/20/20 17/17/17
f 21/21/21 22/22/22 23/23/23
f 23/23/23 24/24/24 21/21/21
f 25/25/25 21/21/21 24/24/24
f 24/24/24 26/26/26 25/25/25
f 27/27/27 25/25/25 26/26/26
f 26/26/26 28/28/28 27/27/27
f 29/29/29 30/30/30 31/31/31
f 31/31/31 32/32/32 29/29/29
f 33/33/33 34/34/34 35/35/35
f 35/35/35 36/36/36 33/33/33
f 37/37/37 38/38/38 39/39/39
f 39/39/39 40/40/40 37/37/37
f 41/41/41 42/42/42 43/43/43
f 43/43/43 44/44/44 41/41/41
f 45/45/45 46/46/46 47/47/47
f 47/47/47 48/48/48 45/45/45
g Hoecker2
v 0.965005 0.549288 0.474929
vn -1.95589e-18 -0.209529 -0.977802
vt 0.999985 0
v 0.508092 0.549288 0.474929
vn -1.95589e-18 -0.209529 -0.977802
vt 1 1
v 0.514334 0.642288 0.455
vn -1.95589e-18 -0.209529 -0.977802
vt 0 0.986328
v 0.965005 0.642288 0.455
vn -1.95589e-18 -0.209529 -0.977802
vt 0 0
v 0.514334 0.642288 0.03
vn 6.93889e-17 -1 -5.90509e-17
vt 0.999985 1
v 0.965005 0.642288 0.03
vn 6.93889e-17 -1 -5.90509e-17
vt 1 0
v 0.965005 0.642288 0.455
vn 6.93889e-17 -1 -5.90509e-17
vt 0 0
v 0.514334 0.642288 0.455
vn 6.93889e-17 -1 -5.90509e-17
vt 0 1
v 0.965005 0.652288 0.025
vn 0.980581 0.196116 2.00179e-17
vt 0 0.0599985
v 0.965005 0.652288 0.465
vn 0.980581 0.196116 2.00179e-17
vt 0 0.939986
v 0.995005 0.502288 0.495
vn 0.980581 0.196116 2.00179e-17
vt 0.999985 1
v 0.995005 0.502288 -0.005
vn 0.980581 0.196116 2.00179e-17
vt 1 0
v 0.508092 0.549288 0.475
vn 6.93889e-17 -1 -5.90509e-17
vt 0 0
v 0.508092 0.549288 0.474929
vn 6.93889e-17 -1 -5.90509e-17
vt 0 0.00015259
v 0.965005 0.549288 0.474929
vn 6.93889e-17 -1 -5.90509e-17
vt 0.978576 0.00015259
v 0.965005 0.549288 0.0133929
vn 6.93889e-17 -1 -5.90509e-17
vt 0.978576 1
v 0.975005 0.549288 0.0133929
vn 6.93889e-17 -1 -5.90509e-17
vt 1 1
v 0.975005 0.549288 0.475
vn 6.93889e-17 -1 -5.90509e-17
vt 1 0
v 0.515005 0.652288 0.465
vn -6.93889e-17 1 5.90509e-17
vt 0 0
v 0.965005 0.652288 0.465
vn -6.93889e-17 1 5.90509e-17
vt 1 0
v 0.965005 0.652288 0.025
vn -6.93889e-17 1 5.90509e-17
vt 1 1
v 0.515005 0.652288 0.025
vn -6.93889e-17 1 5.90509e-17
vt 0 1
v 0.508092 0.549288 0.475
vn -2.77556e-17 6.245e-17 -1
vt 0 0.999939
v 0.975005 0.549288 0.475
vn -2.77556e-17 6.245e-17 -1
vt 0 0
v 0.975005 0.548955 0.475
vn -2.77556e-17 6.245e-17 -1
vt 1 0
v 0.50807 0.548955 0.475
vn -2.77556e-17 6.245e-17 -1
vt 0.999985 1
v 0.505005 0.502288 0.485
vn -0.99966 0.0260922 2.93756e-17
vt 1 0.0654765
v 0.505005 0.502288 0.495
vn -0.99966 0.0260922 2.93756e-17
vt 1 1
v 0.505157 0.505558 0.494346
vn -0.997755 0.0669634 3.18751e-17
vt 0 0.938888
v 0.505157 0.505558 0.484299
vn -0.997755 0.0669634 3.18751e-17
vt 0 0
v 0.505005 0.502288 -0.005
vn -0.99966 0.0260922 2.93756e-17
vt 1 0
v 0.505005 0.502288 0.005
vn -0.99966 0.0260922 2.93756e-17
vt 1 0.944823
v 0.505157 0.505558 0.00558388
vn -0.997755 0.0669634 3.18751e-17
vt 0 1
v 0.505157 0.505558 -0.00434606
vn -0.997755 0.0669634 3.18751e-17
vt 0 0.0617838
v 0.505157 0.505558 0.494346
vn -0.997755 0.0669634 3.18751e-17
vt 0 1
v 0.515005 0.652288 0.465
vn -0.997755 0.0669634 3.18751e-17
vt 1 0.941146
v 0.508092 0.549288 0.475
vn -0.997755 0.0669634 3.18751e-17
vt 0.298024 0.961196
v 0.50807 0.548955 0.475
vn -0.997755 0.0669634 3.18751e-17
vt 0.29575 0.961196
v 0.505157 0.505558 0.484299
vn -0.997755 0.0669634 3.18751e-17
vt 0 0.979843
v 0.514334 0.642288 0.455
vn -0.997755 0.0669634 3.18751e-17
vt 0.931838 0.921096
v 0.508092 0.549288 0.474929
vn -0.997755 0.0669634 3.18751e-17
vt 0.298024 0.961059
v 0.514334 0.642288 0.03
vn -0.997755 0.0669634 3.18751e-17
vt 0.931838 0.068864
v 0.515005 0.652288 0.025
vn -0.997755 0.0669634 3.18751e-17
vt 0.999985 0.0588388
v 0.505157 0.505558 0.00558388
vn -0.997755 0.0669634 3.18751e-17
vt 0 0.0198978
v 0.505157 0.505558 -0.00434606
vn -0.997755 0.0669634 3.18751e-17
vt 0 0
v 0.505157 0.505558 -0.00434606
vn -2.97269e-17 0.196116 -0.980581
vt 0.0217899 0.99968
v 0.515005 0.652288 0.025
vn -2.97269e-17 0.196116 -0.980581
vt 1 0.979583
v 0.965005 0.652288 0.025
vn -2.97269e-17 0.196116 -0.980581
vt 0.999985 0.0612192
v 0.995005 0.502288 -0.005
vn -2.97269e-17 0.196116 -0.980581
vt 0 0
v 0.505005 0.502288 -0.005
vn -2.97269e-17 0.196116 -0.980581
vt 0 1
v 0.965005 0.642288 0.03
vn -1 -5.55112e-17 5.5485e-18
vt 0.964004 0
v 0.965005 0.549288 0.0133929
vn -1 -5.55112e-17 5.5485e-18
vt 1 1
v 0.965005 0.549288 0.474929
vn -1 -5.55112e-17 5.5485e-18
vt 0 0.999985
v 0.965005 0.642288 0.455
vn -1 -5.55112e-17 5.5485e-18
vt 0.0431678 0
v 0.975005 0.548955 0.475
vn -1 -5.55112e-17 5.5485e-18
vt 0.992905 0.979156
v 0.975005 0.549288 0.475
vn -1 -5.55112e-17 5.5485e-18
vt 1 0.979156
v 0.975005 0.549288 0.0133929
vn -1 -5.55112e-17 5.5485e-18
vt 0.999985 0.0174716
v 0.975005 0.502288 0.005
vn -1 -5.55112e-17 5.5485e-18
vt 0 0
v 0.975005 0.502288 0.485
vn -1 -5.55112e-17 5.5485e-18
vt 0 1
v 0.505157 0.505558 0.494346
vn -1.49814e-18 0.196116 0.980581
vt 0.0217899 0.99968
v 0.505005 0.502288 0.495
vn -1.49814e-18 0.196116 0.980581
vt 0 1
v 0.995005 0.502288 0.495
vn -1.49814e-18 0.196116 0.980581
vt 0 0
v 0.965005 0.652288 0.465
vn -1.49814e-18 0.196116 0.980581
vt 0.999985 0.0612192
v 0.515005 0.652288 0.465
vn -1.49814e-18 0.196116 0.980581
vt 1 0.979583
v 0.975005 0.502288 0.005
vn 6.93889e-17 -1 -5.90509e-17
vt 0.959182 0.979995
v 0.505005 0.502288 0.005
vn 6.93889e-17 -1 -5.90509e-17
vt 0 0.979995
v 0.505005 0.502288 -0.005
vn 6.93889e-17 -1 -5.90509e-17
vt 0 1
v 0.995005 0.502288 -0.005
vn 6.93889e-17 -1 -5.90509e-17
vt 1 1
v 0.975005 0.502288 0.485
vn 6.93889e-17 -1 -5.90509e-17
vt 0.959182 0.0199893
v 0.995005 0.502288 0.495
vn 6.93889e-17 -1 -5.90509e-17
vt 1 0
v 0.505005 0.502288 0.485
vn 6.93889e-17 -1 -5.90509e-17
vt 0 0.0199893
v 0.505005 0.502288 0.495
vn 6.93889e-17 -1 -5.90509e-17
vt 0 0
v 0.505157 0.505558 0.484299
vn -1.95589e-18 -0.209529 -0.977802
vt 0.929931 0.999664
v 0.50807 0.548955 0.475
vn -1.95589e-18 -0.209529 -0.977802
vt 0 0.993469
v 0.975005 0.548955 0.475
vn -1.95589e-18 -0.209529 -0.977802
vt 0 0
v 0.975005 0.502288 0.485
vn -1.95589e-18 -0.209529 -0.977802
vt 0.999985 0
v 0.505005 0.502288 0.485
vn -1.95589e-18 -0.209529 -0.977802
vt 1 1
v 0.965005 0.549288 0.0133929
vn 2.80135e-17 -0.175791 0.984428
vt 0.664271 0.0212711
v 0.505005 0.502288 0.005
vn 2.80135e-17 -0.175791 0.984428
vt 1 1
v 0.975005 0.502288 0.005
vn 2.80135e-17 -0.175791 0.984428
vt 0.999985 0
v 0.975005 0.549288 0.0133929
vn 2.80135e-17 -0.175791 0.984428
vt 0.664271 0
v 0.505157 0.505558 0.00558388
vn 2.80135e-17 -0.175791 0.984428
vt 0.976638 0.999664
v 0.965005 0.642288 0.03
vn 2.80135e-17 -0.175791 0.984428
vt 0 0.0212711
v 0.514334 0.642288 0.03
vn 2.80135e-17 -0.175791 0.984428
vt 0 0.980148
f 49/49/49 50/50/50 51/51/51
f 51/51/51 52/52/52 49/49/49
f 53/53/53 54/54/54 55/55/55
f 55/55/55 56/56/56 53/53/53
f 57/57/57 58/58/58 59/59/59
f 59/59/59 60/60/60 57/57/57
f 61/61/61 62/62/62 63/63/63
f 63/63/63 64/64/64 65/65/65
f 65/65/65 66/66/66 63/63/63
f 63/63/63 66/66/66 61/61/61
f 67/67/67 68/68/68 69/69/69
f 69/69/69 70/70/70 67/67/67
f 71/71/71 72/72/72 73/73/73
f 73/73/73 74/74/74 71/71/71
f 75/75/75 76/76/76 77/77/77
f 77/77/77 78/78/78 75/75/75
f 79/79/79 80/80/80 81/81/81
f 81/81/81 82/82/82 79/79/79
f 83/83/83 84/84/84 85/85/85
f 83/83/83 85/85/85 86/86/86
f 86/86/86 87/87/87 83/83/83
f 88/88/88 89/89/89 85/85/85
f 85/85/85 84/84/84 88/88/88
f 90/90/90 88/88/88 84/84/84
f 84/84/84 91/91/91 90/90/90
f 92/92/92 90/90/90 91/91/91
f 91/91/91 93/93/93 92/92/92
f 94/94/94 95/95/95 96/96/96
f 96/96/96 97/97/97 94/94/94
f 97/97/97 98/98/98 94/94/94
f 99/99/99 100/100/100 101/101/101
f 101/101/101 102/102/102 99/99/99
f 103/103/103 104/104/104 105/105/105
f 105/105/105 106/106/106 103/103/103
f 106/106/106 107/107/107 103/103/103
f 108/108/108 109/109/109 110/110/110
f 108/108/108 110/110/110 111/111/111
f 111/111/111 112/112/112 108/108/108
f 113/113/113 114/114/114 115/115/115
f 115/115/115 116/116/116 113/113/113
f 117/117/117 113/113/113 116/116/116
f 116/116/116 118/118/118 117/117/117
f 119/119/119 117/117/117 118/118/118
f 118/118/118 120/120/120 119/119/119
f 121/121/121 122/122/122 123/123/123
f 123/123/123 124/124/124 121/121/121
f 124/124/124 125/125/125 121/121/121
f 126/126/126 127/127/127 128/128/128
f 128/128/128 129/129/129 126/126/126
f 130/130/130 127/127/127 126/126/126
f 130/130/130 126/126/126 131/131/131
f 131/131/131 132/132/132 130/130/130
g Hoecker1
v 0.48194 0.548955 0.475
vn -2.77556e-17 6.245e-17 -1
vt 1 0
v 0.0150051 0.548955 0.475
vn -2.77556e-17 6.245e-17 -1
vt 0.999985 1
v 0.0150051 0.549288 0.475
vn -2.77556e-17 6.245e-17 -1
vt 0 1
v 0.481918 0.549288 0.475
vn -2.77556e-17 6.245e-17 -1
vt 0 4.57771e-05
v 0.0250051 0.642288 0.455
vn -1.95589e-18 -0.209529 -0.977802
vt 0 1
v 0.475676 0.642288 0.455
vn -1.95589e-18 -0.209529 -0.977802
vt 0 0.0136568
v 0.481918 0.549288 0.474929
vn -1.95589e-18 -0.209529 -0.977802
vt 1 0
v 0.0250051 0.549288 0.474929
vn -1.95589e-18 -0.209529 -0.977802
vt 0.999985 0.999985
v 0.484853 0.505558 -0.00434606
vn -2.97269e-17 0.196116 -0.980581
vt 0.0217899 0.00030518
v 0.485005 0.502288 -0.005
vn -2.97269e-17 0.196116 -0.980581
vt 0 0
v -0.00499487 0.502288 -0.005
vn -2.97269e-17 0.196116 -0.980581
vt 0 1
v 0.0250051 0.652288 0.025
vn -2.97269e-17 0.196116 -0.980581
vt 0.999985 0.938766
v 0.475005 0.652288 0.025
vn -2.97269e-17 0.196116 -0.980581
vt 1 0.0204013
v 0.0250051 0.549288 0.474929
vn 6.93889e-17 -1 -5.90509e-17
vt 0.978576 0.999832
v 0.481918 0.549288 0.474929
vn 6.93889e-17 -1 -5.90509e-17
vt 0 0.999832
v 0.481918 0.549288 0.475
vn 6.93889e-17 -1 -5.90509e-17
vt 0 1
v 0.0150051 0.549288 0.475
vn 6.93889e-17 -1 -5.90509e-17
vt 0.999985 1
v 0.0250051 0.549288 0.0133929
vn 6.93889e-17 -1 -5.90509e-17
vt 0.978576 0
v 0.0150051 0.549288 0.0133929
vn 6.93889e-17 -1 -5.90509e-17
vt 1 0
v 0.484853 0.505558 0.484299
vn -1.95589e-18 -0.209529 -0.977802
vt 0.929931 0.000320439
v 0.485005 0.502288 0.485
vn -1.95589e-18 -0.209529 -0.977802
vt 1 0
v 0.0150051 0.502288 0.485
vn -1.95589e-18 -0.209529 -0.977802
vt 0.999985 1
v 0.0150051 0.548955 0.475
vn -1.95589e-18 -0.209529 -0.977802
vt 0 0.999985
v 0.48194 0.548955 0.475
vn -1.95589e-18 -0.209529 -0.977802
vt 0 0.0065156
v -0.00499487 0.502288 -0.005
vn -0.980581 0.196116 3.1438e-18
vt 1 1
v -0.00499487 0.502288 0.495
vn -0.980581 0.196116 3.1438e-18
vt 0.999985 0
v 0.0250051 0.652288 0.465
vn -0.980581 0.196116 3.1438e-18
vt 0 0.0599985
v 0.0250051 0.652288 0.025
vn -0.980581 0.196116 3.1438e-18
vt 0 0.939986
v 0.475005 0.652288 0.025
vn -6.93889e-17 1 5.90509e-17
vt 0 0
v 0.0250051 0.652288 0.025
vn -6.93889e-17 1 5.90509e-17
vt 1 0
v 0.0250051 0.652288 0.465
vn -6.93889e-17 1 5.90509e-17
vt 1 1
v 0.475005 0.652288 0.465
vn -6.93889e-17 1 5.90509e-17
vt 0 1
v 0.475676 0.642288 0.455
vn 6.93889e-17 -1 -5.90509e-17
vt 0 0
v 0.0250051 0.642288 0.455
vn 6.93889e-17 -1 -5.90509e-17
vt 0 1
v 0.0250051 0.642288 0.03
vn 6.93889e-17 -1 -5.90509e-17
vt 1 1
v 0.475676 0.642288 0.03
vn 6.93889e-17 -1 -5.90509e-17
vt 1 0
v 0.484853 0.505558 -0.00434606
vn 0.997755 0.0669634 -2.35114e-17
vt 1 0.0617838
v 0.484853 0.505558 0.00558388
vn 0.997755 0.0669634 -2.35114e-17
vt 1 1
v 0.485005 0.502288 0.005
vn 0.99966 0.0260922 -2.61167e-17
vt 0 0.944823
v 0.485005 0.502288 -0.005
vn 0.99966 0.0260922 -2.61167e-17
vt 0 0
v 0.485005 0.502288 0.495
vn 0.99966 0.0260922 -2.61167e-17
vt 0 1
v 0.485005 0.502288 0.485
vn 0.99966 0.0260922 -2.61167e-17
vt 0 0.0654765
v 0.484853 0.505558 0.484299
vn 0.997755 0.0669634 -2.35114e-17
vt 1 0
v 0.484853 0.505558 0.494346
vn 0.997755 0.0669634 -2.35114e-17
vt 0.999985 0.938888
v 0.0150051 0.502288 0.485
vn 6.93889e-17 -1 -5.90509e-17
vt 0.959182 0.979995
v 0.485005 0.502288 0.485
vn 6.93889e-17 -1 -5.90509e-17
vt 0 0.979995
v 0.485005 0.502288 0.495
vn 6.93889e-17 -1 -5.90509e-17
vt 0 1
v -0.00499487 0.502288 0.495
vn 6.93889e-17 -1 -5.90509e-17
vt 1 1
v 0.0150051 0.502288 0.005
vn 6.93889e-17 -1 -5.90509e-17
vt 0.959182 0.0199893
v -0.00499487 0.502288 -0.005
vn 6.93889e-17 -1 -5.90509e-17
vt 1 0
v 0.485005 0.502288 0.005
vn 6.93889e-17 -1 -5.90509e-17
vt 0 0.0199893
v 0.485005 0.502288 -0.005
vn 6.93889e-17 -1 -5.90509e-17
vt 0 0
v 0.0250051 0.642288 0.455
vn 1 5.55112e-17 -5.5485e-18
vt 0.0431678 1
v 0.0250051 0.549288 0.474929
vn 1 5.55112e-17 -5.5485e-18
vt 0 0
v 0.0250051 0.549288 0.0133929
vn 1 5.55112e-17 -5.5485e-18
vt 1 0
v 0.0250051 0.642288 0.03
vn 1 5.55112e-17 -5.5485e-18
vt 0.964004 0.999985
v 0.484853 0.505558 0.494346
vn -1.49814e-18 0.196116 0.980581
vt 0.0217899 0.00030518
v 0.475005 0.652288 0.465
vn -1.49814e-18 0.196116 0.980581
vt 1 0.0204013
v 0.0250051 0.652288 0.465
vn -1.49814e-18 0.196116 0.980581
vt 0.999985 0.938766
v -0.00499487 0.502288 0.495
vn -1.49814e-18 0.196116 0.980581
vt 0 1
v 0.485005 0.502288 0.495
vn -1.49814e-18 0.196116 0.980581
vt 0 0
v 0.0150051 0.502288 0.005
vn 1 5.55112e-17 -5.5485e-18
vt 0 1
v 0.0150051 0.549288 0.0133929
vn 1 5.55112e-17 -5.5485e-18
vt 1 0.982513
v 0.0150051 0.549288 0.475
vn 1 5.55112e-17 -5.5485e-18
vt 0.999985 0.0208286
v 0.0150051 0.548955 0.475
vn 1 5.55112e-17 -5.5485e-18
vt 0.992905 0.0208286
v 0.0150051 0.502288 0.485
vn 1 5.55112e-17 -5.5485e-18
vt 0 0
v 0.484853 0.505558 0.494346
vn 0.997755 0.0669634 -2.35114e-17
vt 0 0
v 0.484853 0.505558 0.484299
vn 0.997755 0.0669634 -2.35114e-17
vt 0 0.0201419
v 0.48194 0.548955 0.475
vn 0.997755 0.0669634 -2.35114e-17
vt 0.29575 0.0387884
v 0.481918 0.549288 0.475
vn 0.997755 0.0669634 -2.35114e-17
vt 0.298024 0.0387884
v 0.475005 0.652288 0.465
vn 0.997755 0.0669634 -2.35114e-17
vt 1 0.0588388
v 0.475676 0.642288 0.03
vn 0.997755 0.0669634 -2.35114e-17
vt 0.931838 0.931121
v 0.484853 0.505558 0.00558388
vn 0.997755 0.0669634 -2.35114e-17
vt 0 0.980087
v 0.484853 0.505558 -0.00434606
vn 0.997755 0.0669634 -2.35114e-17
vt 0 1
v 0.475005 0.652288 0.025
vn 0.997755 0.0669634 -2.35114e-17
vt 0.999985 0.941146
v 0.475676 0.642288 0.455
vn 0.997755 0.0669634 -2.35114e-17
vt 0.931838 0.0788891
v 0.481918 0.549288 0.474929
vn 0.997755 0.0669634 -2.35114e-17
vt 0.298024 0.0389258
v 0.0250051 0.549288 0.0133929
vn 2.80135e-17 -0.175791 0.984428
vt 0.664271 0.978714
v 0.0150051 0.549288 0.0133929
vn 2.80135e-17 -0.175791 0.984428
vt 0.664271 0.999985
v 0.0150051 0.502288 0.005
vn 2.80135e-17 -0.175791 0.984428
vt 0.999985 1
v 0.484853 0.505558 0.00558388
vn 2.80135e-17 -0.175791 0.984428
vt 0.976638 0.000320439
v 0.475676 0.642288 0.03
vn 2.80135e-17 -0.175791 0.984428
vt 0 0.0198367
v 0.0250051 0.642288 0.03
vn 2.80135e-17 -0.175791 0.984428
vt 0 0.978714
v 0.485005 0.502288 0.005
vn 2.80135e-17 -0.175791 0.984428
vt 1 0
f 133/133/133 134/134/134 135/135/135
f 135/135/135 136/136/136 133/133/133
f 137/137/137 138/138/138 139/139/139
f 139/139/139 140/140/140 137/137/137
f 141/141/141 142/142/142 143/143/143
f 141/141/141 143/143/143 144/144/144
f 144/144/144 145/145/145 141/141/141
f 146/146/146 147/147/147 148/148/148
f 148/148/148 149/149/149 146/146/146
f 150/150/150 146/146/146 149/149/149
f 149/149/149 151/151/151 150/150/150
f 152/152/152 153/153/153 154/154/154
f 152/152/152 154/154/154 155/155/155
f 155/155/155 156/156/156 152/152/152
f 157/157/157 158/158/158 159/159/159
f 159/159/159 160/160/160 157/157/157
f 161/161/161 162/162/162 163/163/163
f 163/163/163 164/164/164 161/161/161
f 165/165/165 166/166/166 167/167/167
f 167/167/167 168/168/168 165/165/165
f 169/169/169 170/170/170 171/171/171
f 171/171/171 172/172/172 169/169/169
f 173/173/173 174/174/174 175/175/175
f 175/175/175 176/176/176 173/173/173
f 177/177/177 178/178/178 179/179/179
f 179/179/179 180/180/180 177/177/177
f 181/181/181 177/177/177 180/180/180
f 180/180/180 182/182/182 181/181/181
f 183/183/183 181/181/181 182/182/182
f 182/182/182 184/184/184 183/183/183
f 185/185/185 186/186/186 187/187/187
f 187/187/187 188/188/188 185/185/185
f 189/189/189 190/190/190 191/191/191
f 191/191/191 192/192/192 189/189/189
f 192/192/192 193/193/193 189/189/189
f 194/194/194 195/195/195 196/196/196
f 196/196/196 197/197/197 194/194/194
f 197/197/197 198/198/198 194/194/194
f 199/199/199 200/200/200 201/201/201
f 201/201/201 202/202/202 199/199/199
f 202/202/202 203/203/203 199/199/199
f 204/204/204 205/205/205 206/206/206
f 206/206/206 207/207/207 204/204/204
f 208/208/208 204/204/204 207/207/207
f 207/207/207 203/203/203 208/208/208
f 209/209/209 208/208/208 203/203/203
f 203/203/203 202/202/202 209/209/209
f 210/210/210 211/211/211 212/212/212
f 213/213/213 214/214/214 215/215/215
f 215/215/215 210/210/210 213/213/213
f 210/210/210 216/216/216 213/213/213
f 212/212/212 216/216/216 210/210/210
g Seite
v -0.00499487 0.502288 0.485
vn -0 -0 -1
vt 0 0
v 0.995005 0.502288 0.485
vn -0 -0 -1
vt 0 1
v 0.995005 0.00228831 0.485
vn -0 -0 -1
vt 0.999985 1
v -0.00499487 0.00228831 0.485
vn -0 -0 -1
vt 1 0
v -0.00499487 0.00228831 0.495
vn 0 0 1
vt 1 0
v 0.995005 0.00228831 0.495
vn 0 0 1
vt 0.999985 1
v 0.995005 0.502288 0.495
vn 0 0 1
vt 0 1
v -0.00499487 0.502288 0.495
vn 0 0 1
vt 0 0
v -0.00499487 0.502288 0.485
vn -5.55112e-17 1 0
vt 1 0
v -0.00499487 0.502288 0.495
vn -5.55112e-17 1 0
vt 1 1
v 0.995005 0.502288 0.495
vn -5.55112e-17 1 0
vt 0 1
v 0.995005 0.502288 0.485
vn -5.55112e-17 1 0
vt 0 0
v 0.995005 0.502288 0.485
vn 1 6.93889e-17 -0
vt 1 0
v 0.995005 0.502288 0.495
vn 1 6.93889e-17 -0
vt 1 0.999985
v 0.995005 0.00228831 0.495
vn 1 6.93889e-17 -0
vt 0 1
v 0.995005 0.00228831 0.485
vn 1 6.93889e-17 -0
vt 0 0
v 0.995005 0.00228831 0.485
vn 5.55112e-17 -1 -0
vt 0 0
v 0.995005 0.00228831 0.495
vn 5.55112e-17 -1 -0
vt 0 1
v -0.00499487 0.00228831 0.495
vn 5.55112e-17 -1 -0
vt 1 0.999985
v -0.00499487 0.00228831 0.485
vn 5.55112e-17 -1 -0
vt 1 0
v -0.00499487 0.00228831 0.485
vn -1 -6.93889e-17 0
vt 0 0
v -0.00499487 0.00228831 0.495
vn -1 -6.93889e-17 0
vt 0 1
v -0.00499487 0.502288 0.495
vn -1 -6.93889e-17 0
vt 1 1
v -0.00499487 0.502288 0.485
vn -1 -6.93889e-17 0
vt 1 0
f 217/217/217 218/218/218 219/219/219
f 219/219/219 220/220/220 217/217/217
f 221/221/221 222/222/222 223/223/223
f 223/223/223 224/224/224 221/221/221
f 225/225/225 226/226/226 227/227/227
f 227/227/227 228/228/228 225/225/225
f 229/229/229 230/230/230 231/231/231
f 231/231/231 232/232/232 229/229/229
f 233/233/233 234/234/234 235/235/235
f 235/235/235 236/236/236 233/233/233
f 237/237/237 238/238/238 239/239/239
f 239/239/239 240/240/240 237/237/237
